<svg xmlns="http://www.w3.org/2000/svg" viewBox="0 0 1200 760" role="img" aria-labelledby="t d">
<title id="t">Outcome file 03: INFRASTRUCTURE DESIGN</title><desc id="d">A Gotham Solutions Group case file with review notes and an approval stamp.</desc>
<defs>
 <linearGradient id="bg" x1="0" y1="0" x2="1" y2="1"><stop stop-color="#06192d"/><stop offset="1" stop-color="#0c4774"/></linearGradient>
 <linearGradient id="paper" x1="0" y1="0" x2="0" y2="1"><stop stop-color="#fbfcfd"/><stop offset="1" stop-color="#edf2f6"/></linearGradient>
 <pattern id="grid" width="32" height="32" patternUnits="userSpaceOnUse"><path d="M32 0H0V32" fill="none" stroke="#8fb3cf" stroke-opacity=".16"/></pattern>
 <filter id="shadow"><feDropShadow dx="0" dy="22" stdDeviation="22" flood-color="#020b15" flood-opacity=".36"/></filter>
 <filter id="grain"><feTurbulence type="fractalNoise" baseFrequency=".75" numOctaves="2" seed="7" result="n"/><feColorMatrix in="n" values="1 0 0 0 0 0 1 0 0 0 0 0 1 0 0 0 0 0 .055 0"/></filter>
</defs>
<rect width="1200" height="760" fill="url(#bg)"/><rect width="1200" height="760" fill="url(#grid)"/>
<g transform="translate(90 54) rotate(-1 510 325)" filter="url(#shadow)">
 <rect x="0" y="0" width="1020" height="650" rx="24" fill="url(#paper)"/>
 <path d="M930 0h66a24 24 0 0 1 24 24v72z" fill="#dce7ef"/><path d="M930 0v72h90" fill="none" stroke="#b7c9d7" stroke-width="2"/>
 <rect x="0" y="0" width="1020" height="650" rx="24" filter="url(#grain)" opacity=".7"/>
 <rect x="46" y="46" width="928" height="558" rx="16" fill="none" stroke="#b9cbd8" stroke-width="2"/>
 <text x="76" y="94" font-family="Arial,Helvetica,sans-serif" font-size="18" font-weight="700" letter-spacing="4" fill="#63798c">GOTHAM SOLUTIONS GROUP</text>
 <text x="76" y="151" font-family="Arial,Helvetica,sans-serif" font-size="46" font-weight="800" fill="#092f50">OUTCOME FILE 03</text>
 <rect x="76" y="178" width="868" height="2" fill="#0b5f9b"/>
 <text x="76" y="236" font-family="Arial,Helvetica,sans-serif" font-size="22" font-weight="700" letter-spacing="2" fill="#6b7f8f">CATEGORY</text>
 <text x="76" y="282" font-family="Arial,Helvetica,sans-serif" font-size="38" font-weight="800" fill="#152d43">INFRASTRUCTURE DESIGN</text>
 <rect x="748" y="214" width="196" height="92" rx="16" fill="#e7f0f6" stroke="#b7ccdc"/>
 <text x="846" y="247" text-anchor="middle" font-family="Arial,Helvetica,sans-serif" font-size="15" font-weight="700" letter-spacing="2" fill="#567083">STATUS</text>
 <text x="846" y="282" text-anchor="middle" font-family="Arial,Helvetica,sans-serif" font-size="24" font-weight="800" fill="#0b5f9b">RESOLVED</text>
 <text x="76" y="367" font-family="Arial,Helvetica,sans-serif" font-size="18" font-weight="700" letter-spacing="3" fill="#62798d">ENGINEERING REVIEW</text>
 <g transform="translate(0,0)"><rect x="95" y="414" width="18" height="18" rx="4" fill="#0b5f9b"/><path d="M100 423l5 5 9-12" fill="none" stroke="#fff" stroke-width="3" stroke-linecap="round" stroke-linejoin="round"/><text x="130" y="429" font-family="Arial,Helvetica,sans-serif" font-size="24" fill="#20344c">Network design</text><line x1="130" y1="440" x2="670" y2="440" stroke="#c8d6e3" stroke-width="2"/></g><g transform="translate(0,46)"><rect x="95" y="414" width="18" height="18" rx="4" fill="#0b5f9b"/><path d="M100 423l5 5 9-12" fill="none" stroke="#fff" stroke-width="3" stroke-linecap="round" stroke-linejoin="round"/><text x="130" y="429" font-family="Arial,Helvetica,sans-serif" font-size="24" fill="#20344c">Site readiness</text><line x1="130" y1="440" x2="670" y2="440" stroke="#c8d6e3" stroke-width="2"/></g><g transform="translate(0,92)"><rect x="95" y="414" width="18" height="18" rx="4" fill="#0b5f9b"/><path d="M100 423l5 5 9-12" fill="none" stroke="#fff" stroke-width="3" stroke-linecap="round" stroke-linejoin="round"/><text x="130" y="429" font-family="Arial,Helvetica,sans-serif" font-size="24" fill="#20344c">Resilience planning</text><line x1="130" y1="440" x2="670" y2="440" stroke="#c8d6e3" stroke-width="2"/></g>
 <g transform="translate(746 384)"><circle cx="98" cy="92" r="82" fill="#eef4f8" stroke="#b9cbd8" stroke-width="2"/><text x="98" y="88" text-anchor="middle" font-family="Arial,Helvetica,sans-serif" font-size="44" font-weight="800" fill="#0b5f9b">24/7</text><text x="98" y="116" text-anchor="middle" font-family="Arial,Helvetica,sans-serif" font-size="13" font-weight="700" letter-spacing="1.5" fill="#5f7485">SYSTEM COVERAGE</text></g>
 <g transform="translate(700 520) rotate(-7)"><rect x="0" y="0" width="248" height="66" rx="8" fill="none" stroke="#0b5f9b" stroke-width="5"/><text x="124" y="42" text-anchor="middle" font-family="Arial,Helvetica,sans-serif" font-size="24" font-weight="900" letter-spacing="2" fill="#0b5f9b">SITE APPROVED</text></g>
 <text x="76" y="584" font-family="Arial,Helvetica,sans-serif" font-size="14" font-weight="700" letter-spacing="2" fill="#8495a3">CONFIDENTIAL • CLIENT DETAILS REDACTED</text>
</g>
<g transform="translate(1010 54)"><circle cx="58" cy="58" r="48" fill="#fff" fill-opacity=".95"/><path d="M42 59l11 11 24-29" fill="none" stroke="#0b5f9b" stroke-width="7" stroke-linecap="round" stroke-linejoin="round"/></g>
</svg>